<svg xmlns="http://www.w3.org/2000/svg" xmlns:xlink="http://www.w3.org/1999/xlink" viewBox="0,0,256,256" width="100px" height="100px" fill-rule="nonzero"><g fill="none" fill-rule="nonzero" stroke="none" stroke-width="1" stroke-linecap="butt" stroke-linejoin="miter" stroke-miterlimit="10" stroke-dasharray="" stroke-dashoffset="0" font-family="none" font-weight="none" font-size="none" text-anchor="none" style="mix-blend-mode: normal"><g transform="scale(2.56,2.56)"><path d="M78,13c-0.55228,0 -1,0.44772 -1,1c0,0.55228 0.44772,1 1,1c0.55228,0 1,-0.44772 1,-1c0,-0.55228 -0.44772,-1 -1,-1z" fill="#f1bc19"></path><path d="M50,12c-20.98682,0 -38,17.01318 -38,38c0,20.98682 17.01318,38 38,38c20.98682,0 38,-17.01318 38,-38c0,-20.98682 -17.01318,-38 -38,-38z" fill="#e4e4f9"></path><path d="M84,12c-2.20914,0 -4,1.79086 -4,4c0,2.20914 1.79086,4 4,4c2.20914,0 4,-1.79086 4,-4c0,-2.20914 -1.79086,-4 -4,-4z" fill="#f1bc19"></path><path d="M14,24c-1.10457,0 -2,0.89543 -2,2c0,1.10457 0.89543,2 2,2c1.10457,0 2,-0.89543 2,-2c0,-1.10457 -0.89543,-2 -2,-2z" fill="#ee3e54"></path><path d="M78,75c-1.10457,0 -2,0.89543 -2,2c0,1.10457 0.89543,2 2,2c1.10457,0 2,-0.89543 2,-2c0,-1.10457 -0.89543,-2 -2,-2zM17,74c-2.20914,0 -4,1.79086 -4,4c0,2.20914 1.79086,4 4,4c2.20914,0 4,-1.79086 4,-4c0,-2.20914 -1.79086,-4 -4,-4z" fill="#fbcd59"></path><path d="M24,81c-1.10457,0 -2,0.89543 -2,2c0,1.10457 0.89543,2 2,2c1.10457,0 2,-0.89543 2,-2c0,-1.10457 -0.89543,-2 -2,-2z" fill="#ee3e54"></path><path d="M66.483,76.034c-1.37132,0 -2.483,1.11168 -2.483,2.483c0,1.37132 1.11168,2.483 2.483,2.483c1.37132,0 2.483,-1.11168 2.483,-2.483c0,-1.37132 -1.11168,-2.483 -2.483,-2.483zM16,47c-0.55228,0 -1,0.44772 -1,1c0,0.55228 0.44772,1 1,1c0.55228,0 1,-0.44772 1,-1c0,-0.55228 -0.44772,-1 -1,-1z" fill="#ffffff"></path><path d="M86,30c-0.55228,0 -1,0.44772 -1,1c0,0.55228 0.44772,1 1,1c0.55228,0 1,-0.44772 1,-1c0,-0.55228 -0.44772,-1 -1,-1z" fill="#f1bc19"></path><path d="M80,64c-1.10457,0 -2,0.89543 -2,2c0,1.10457 0.89543,2 2,2c1.10457,0 2,-0.89543 2,-2c0,-1.10457 -0.89543,-2 -2,-2z" fill="#ffffff"></path><g><path d="M64.125,68.301c-0.742,-0.001 -1.269,-0.265 -1.708,-0.857c-1.266,-1.707 -1.885,-3.746 -1.891,-3.767l-0.172,-0.577l-0.597,0.084c-3.168,0.45 -6.416,0.679 -9.652,0.679c-3.238,0 -6.558,-0.229 -9.865,-0.679l-0.594,-0.081l-0.172,0.574c-0.006,0.021 -0.625,2.06 -1.891,3.767c-0.439,0.593 -0.966,0.857 -1.708,0.857c-0.777,0 -1.683,-0.283 -2.641,-0.583l-0.634,-0.196c-2.722,-0.818 -6.869,-3.56 -8.644,-5.165c-0.777,-0.744 -1.597,-1.527 -1.106,-6.133c0.55,-5.164 3.798,-18.174 4.949,-20.985c1.035,-2.528 2.804,-3.633 4.679,-4.63c2.078,-0.927 4.39,-1.695 6.825,-2.262c0.573,-0.119 1.071,-0.179 1.508,-0.179c1.297,0 1.665,0.544 1.829,0.953l1.077,2.684l0.584,-0.136c1.876,-0.436 3.786,-0.657 5.677,-0.657c1.891,0 3.816,0.222 5.724,0.658l0.583,0.133l1.076,-2.682c0.164,-0.409 0.532,-0.953 1.829,-0.953c0.437,0 0.935,0.06 1.522,0.183c2.421,0.563 4.732,1.331 6.854,2.278c1.831,0.977 3.6,2.081 4.635,4.609c1.151,2.812 4.399,15.821 4.949,20.985c0.49,4.605 -0.329,5.389 -1.121,6.146c-1.76,1.592 -5.907,4.333 -8.629,5.15l-0.636,0.196c-0.956,0.303 -1.861,0.586 -2.639,0.586z" fill="#88cdd7"></path><path d="M59.189,28.868c0.383,0 0.847,0.057 1.349,0.162c2.376,0.552 4.63,1.299 6.699,2.22c1.806,0.963 3.376,1.957 4.317,4.254c1.11,2.711 4.369,15.798 4.901,20.795c0.454,4.262 -0.208,4.896 -0.88,5.54c-1.686,1.525 -5.787,4.235 -8.376,5.013c-0.214,0.064 -0.429,0.131 -0.642,0.198c-0.906,0.283 -1.761,0.55 -2.432,0.55c-0.525,0 -0.836,-0.155 -1.146,-0.573c-1.187,-1.602 -1.777,-3.532 -1.782,-3.549l-0.344,-1.156l-1.195,0.169c-3.136,0.446 -6.35,0.671 -9.554,0.671c-3.207,0 -6.494,-0.226 -9.771,-0.672l-1.185,-0.159l-0.345,1.145c-0.006,0.019 -0.595,1.949 -1.782,3.55c-0.31,0.418 -0.621,0.574 -1.146,0.574c-0.671,0 -1.526,-0.268 -2.432,-0.55c-0.213,-0.067 -0.428,-0.134 -0.642,-0.198c-2.589,-0.777 -6.69,-3.488 -8.347,-4.985c-0.701,-0.671 -1.363,-1.305 -0.909,-5.567c0.532,-4.997 3.791,-18.084 4.901,-20.795c0.941,-2.298 2.51,-3.292 4.317,-4.254c2.069,-0.921 4.322,-1.668 6.668,-2.214c0.532,-0.111 0.996,-0.168 1.379,-0.168c0.973,0 1.107,0.335 1.179,0.514l0.853,2.126l0.447,1.114l1.169,-0.271c1.824,-0.424 3.68,-0.639 5.518,-0.639c1.839,0 3.712,0.215 5.568,0.64l1.166,0.267l0.445,-1.111l0.853,-2.126c0.074,-0.18 0.208,-0.515 1.181,-0.515M59.189,27.468c-1.095,0 -2.054,0.335 -2.479,1.393l-0.853,2.126c-1.974,-0.452 -3.934,-0.675 -5.88,-0.675c-1.959,0 -3.904,0.227 -5.835,0.675l-0.853,-2.126c-0.424,-1.058 -1.384,-1.393 -2.479,-1.393c-0.539,0 -1.11,0.082 -1.666,0.198c-2.487,0.578 -4.82,1.353 -6.996,2.325c-1.874,0.997 -3.85,2.18 -4.997,4.983c-1.178,2.876 -4.448,16.018 -4.997,21.177c-0.5,4.692 0.292,5.73 1.333,6.727c1.791,1.619 6.041,4.453 8.912,5.315c1.206,0.362 2.406,0.807 3.476,0.807c0.861,0 1.639,-0.288 2.271,-1.14c1.359,-1.834 1.999,-3.983 1.999,-3.983c3.347,0.456 6.668,0.685 9.96,0.685c3.278,0 6.529,-0.227 9.751,-0.685c0,0 0.639,2.149 1.999,3.983c0.631,0.852 1.409,1.14 2.27,1.14c1.07,0 2.27,-0.445 3.477,-0.808c2.871,-0.862 7.121,-3.696 8.912,-5.315c1.041,-0.997 1.832,-2.035 1.333,-6.727c-0.549,-5.159 -3.82,-18.301 -4.997,-21.177c-1.148,-2.803 -3.123,-3.986 -4.997,-4.983c-2.176,-0.973 -4.509,-1.747 -6.996,-2.325c-0.558,-0.115 -1.129,-0.197 -1.668,-0.197z" fill="#472b29"></path><path d="M50.166,64.563c-6.003,0 -11.979,-0.966 -17.884,-2.897c-0.367,-0.12 -0.567,-0.516 -0.447,-0.883c0.12,-0.367 0.517,-0.567 0.883,-0.447c11.523,3.768 23.322,3.77 35.068,-0.002c0.374,-0.114 0.763,0.086 0.881,0.453c0.117,0.368 -0.085,0.763 -0.453,0.881c-6.016,1.93 -12.046,2.895 -18.048,2.895zM65.313,35.263c-0.091,0 -0.184,-0.018 -0.272,-0.056c-9.907,-4.187 -19.857,-4.188 -29.575,-0.002c-0.356,0.151 -0.768,-0.01 -0.92,-0.365c-0.153,-0.355 0.011,-0.768 0.365,-0.92c10.084,-4.342 20.405,-4.344 30.675,-0.002c0.356,0.15 0.522,0.561 0.372,0.917c-0.113,0.268 -0.373,0.428 -0.645,0.428z" fill="#472b29"></path><path d="M65.313,38.063c-0.065,0 -0.131,-0.013 -0.194,-0.039c-0.385,-0.162 -0.769,-0.319 -1.153,-0.469c-5.302,-2.071 -10.647,-2.962 -15.897,-2.642c-0.304,0.034 -0.513,-0.193 -0.529,-0.469c-0.016,-0.276 0.193,-0.513 0.469,-0.529c5.394,-0.322 10.884,0.585 16.321,2.708c0.393,0.153 0.786,0.313 1.179,0.479c0.255,0.107 0.374,0.401 0.267,0.655c-0.084,0.191 -0.269,0.306 -0.463,0.306zM43.304,35.521c-0.233,0 -0.443,-0.165 -0.489,-0.404c-0.054,-0.271 0.123,-0.533 0.395,-0.586c0.82,-0.161 1.652,-0.295 2.474,-0.398c0.271,-0.04 0.523,0.158 0.559,0.434c0.034,0.274 -0.159,0.524 -0.434,0.559c-0.799,0.101 -1.608,0.23 -2.407,0.387c-0.034,0.006 -0.066,0.008 -0.098,0.008zM36.134,37.668c-0.197,0 -0.385,-0.118 -0.464,-0.313c-0.104,-0.257 0.021,-0.548 0.276,-0.651c1.643,-0.662 3.316,-1.218 4.978,-1.651c0.27,-0.077 0.54,0.091 0.609,0.357c0.07,0.267 -0.09,0.54 -0.357,0.609c-1.619,0.424 -3.252,0.966 -4.854,1.612c-0.062,0.025 -0.126,0.037 -0.188,0.037z" fill="#472b29"></path><path d="M40.5,44.7c-2.65097,0 -4.8,2.59675 -4.8,5.8c0,3.20325 2.14903,5.8 4.8,5.8c2.65097,0 4.8,-2.59675 4.8,-5.8c0,-3.20325 -2.14903,-5.8 -4.8,-5.8z" fill="#fffef4"></path><path d="M40.5,45.4c2.261,0 4.1,2.288 4.1,5.1c0,2.812 -1.839,5.1 -4.1,5.1c-2.261,0 -4.1,-2.288 -4.1,-5.1c0,-2.812 1.839,-5.1 4.1,-5.1M40.5,44c-3.038,0 -5.5,2.91 -5.5,6.5c0,3.59 2.462,6.5 5.5,6.5c3.038,0 5.5,-2.91 5.5,-6.5c0,-3.59 -2.462,-6.5 -5.5,-6.5z" fill="#472b29"></path><g><path d="M59.5,44.7c-2.65097,0 -4.8,2.59675 -4.8,5.8c0,3.20325 2.14903,5.8 4.8,5.8c2.65097,0 4.8,-2.59675 4.8,-5.8c0,-3.20325 -2.14903,-5.8 -4.8,-5.8z" fill="#fffef4"></path><path d="M59.5,45.4c2.261,0 4.1,2.288 4.1,5.1c0,2.812 -1.839,5.1 -4.1,5.1c-2.261,0 -4.1,-2.288 -4.1,-5.1c0,-2.812 1.839,-5.1 4.1,-5.1M59.5,44c-3.038,0 -5.5,2.91 -5.5,6.5c0,3.59 2.462,6.5 5.5,6.5c3.038,0 5.5,-2.91 5.5,-6.5c0,-3.59 -2.462,-6.5 -5.5,-6.5z" fill="#472b29"></path></g></g></g></g></svg>